<?xml version="1.0" encoding="utf-8"?>
<!-- Generator: Adobe Illustrator 23.0.2, SVG Export Plug-In . SVG Version: 6.00 Build 0)  -->
<svg version="1.1" id="Слой_1" xmlns="http://www.w3.org/2000/svg" xmlns:xlink="http://www.w3.org/1999/xlink" x="0px" y="0px"
	 viewBox="0 0 100 100" style="enable-background:new 0 0 100 100;" xml:space="preserve">
<style type="text/css">
	.st0{display:none;}
	.st1{display:inline;}
	.st2{display:inline;fill:#FFFFFF;}
	.st3{display:none;fill:#FFFFFF;}
</style>
<g class="st0">
	<path class="st1" d="M84.9,49.7c0,11.7,0,23.5,0,35.2c-0.1,9.3-4.2,13.9-12.8,13.9c-14.7,0.1-29.3,0.1-44,0
		c-8.6,0-12.9-4.5-12.9-13.8c-0.1-23.5-0.1-46.9,0-70.4c0-9,4.3-13.6,12.6-13.7c14.8-0.1,29.6-0.1,44.4,0c8.5,0,12.7,4.7,12.7,14
		C84.9,26.6,84.9,38.1,84.9,49.7z M79.9,50.3c0-11.2,0-22.5,0-33.7c0-7.9-2.1-10.3-9.3-10.4c-13.9,0-27.8-0.1-41.7,0
		c-6.7,0-8.9,2.5-8.9,9.7c0,22.6,0,45.2,0,67.8c0,7.1,2.3,9.6,9,9.6c13.9,0.1,27.8,0.1,41.7,0c6.9,0,9.2-2.4,9.2-9.9
		C80,72.5,79.9,61.4,79.9,50.3z"/>
	<path class="st1" d="M50.8,81.7c-4.9,0-9.8,0.1-14.8,0c-4.9-0.1-6.9-2.1-6.9-7.2c-0.1-7.3-0.1-14.7,0-22.1c0-4.7,2.2-7.2,6.6-7.2
		c9.9,0,19.7-0.1,29.5,0c4.7,0.1,6.6,2.2,6.7,7.5c0.1,7.2,0.1,14.4,0,21.6c-0.1,5.2-2,7.3-6.8,7.4C60.3,81.8,55.5,81.7,50.8,81.7z"
		/>
	<path class="st1" d="M50.3,25.4c-5.2,0-10.5,0-15.7,0c-2.6,0-5.2-0.6-5.3-4.1s2.5-4.2,5.2-4.2c10.6,0,21.2,0,31.8,0
		c2.6,0,5.2,0.6,5.3,4.1c0.1,3.5-2.5,4.2-5.2,4.2C61.1,25.4,55.7,25.4,50.3,25.4z"/>
	<path class="st1" d="M44,37.4c-3.2,0-6.5,0.1-9.7,0c-2.4-0.1-4.2-1.4-4.1-4.3c0.1-2.6,1.8-3.8,4-3.9c6.4-0.1,12.9-0.1,19.3,0
		c2.4,0,4.2,1.4,4.1,4.3c-0.1,2.6-1.8,3.8-4,3.9C50.5,37.5,47.3,37.4,44,37.4z"/>
</g>
<image style="display:none;overflow:visible;enable-background:new    ;" width="400" height="400" xlink:href="346FCCFD.jpeg"  transform="matrix(9.450000e-02 0 0 9.450000e-02 -0.3846 64.8976)">
</image>
<g class="st0">
	<path class="st2" d="M2.3,2.3c32.4,0,64.6,0,96.9,0c0,32.4,0,64.7,0,97.1c-32.2,0-64.5,0-96.9,0C2.3,67,2.3,34.7,2.3,2.3z
		 M50.4,63.3c2.1-0.9,4.2-1.5,5.9-2.6c9.3-6.4,18.5-12.8,27.7-19.4c6.5-4.7,6.1-12.2-0.8-16.1C74,20,64.8,15,55.6,9.9
		c-3.5-1.9-6.8-2-10.3,0C36.1,15,26.8,20,17.7,25.1c-6.9,3.9-7.3,11.5-0.9,16.1c9.2,6.5,18.4,13,27.7,19.4
		C46.2,61.8,48.3,62.4,50.4,63.3z M50.5,93.1c2.2-1.1,4.5-1.8,6.4-3.1c6.2-4.2,12.3-8.6,18.5-12.9c3.6-2.5,7.3-4.9,10.7-7.7
		c1-0.8,1.8-3.2,1.3-4.3c-1-2.2-3-1.7-4.8-0.4c-0.8,0.6-1.7,1.1-2.5,1.7C71.4,72.5,62.6,78.5,54,84.8c-2.5,1.8-4.5,1.9-7,0.1
		c-9.3-6.8-18.8-13.3-28.3-19.9c-1.8-1.3-3.7-2.2-5.2,0c-1.6,2.3,0.1,3.7,1.8,4.9c9.9,6.9,19.7,13.9,29.6,20.7
		C46.4,91.6,48.4,92.1,50.5,93.1z M50.2,78.1c2.3-1,4.6-1.7,6.5-3c7.6-5.1,15-10.4,22.5-15.7c2.5-1.7,5.1-3.3,7.3-5.3
		c0.9-0.8,0.7-2.7,1-4.2c-1.5-0.2-2.9-0.6-4.4-0.5c-0.7,0-1.4,0.9-2.2,1.4C72.1,56.9,63.2,63,54.5,69.4c-2.8,2.1-5,2.3-8,0.1
		c-9-6.6-18.2-12.9-27.3-19.3c-1.9-1.4-4-2.8-5.8-0.2c-1.7,2.5,0.6,3.8,2.3,5c9.5,6.7,19,13.4,28.6,20.1C46,76.3,48,77,50.2,78.1z"
		/>
	<path class="st1" d="M50.4,63.3c-2.1-0.9-4.2-1.5-5.9-2.7C35.2,54.3,26,47.8,16.8,41.3c-6.5-4.6-6.1-12.2,0.9-16.1
		C26.8,20,36.1,15,45.2,9.8c3.5-2,6.8-1.9,10.3,0C64.8,15,74,20,83.1,25.2c6.9,4,7.3,11.5,0.8,16.1c-9.2,6.6-18.4,13-27.7,19.4
		C54.6,61.9,52.5,62.4,50.4,63.3z"/>
	<path class="st1" d="M50.5,93.1c-2.1-0.9-4.1-1.5-5.7-2.6c-9.9-6.8-19.7-13.8-29.6-20.7c-1.7-1.2-3.4-2.6-1.8-4.9
		c1.6-2.2,3.5-1.3,5.2,0c9.4,6.6,18.9,13.2,28.3,19.9c2.6,1.9,4.5,1.8,7-0.1c8.6-6.2,17.4-12.3,26.1-18.4c0.8-0.6,1.7-1.1,2.5-1.7
		c1.8-1.2,3.8-1.7,4.8,0.4c0.5,1.1-0.3,3.4-1.3,4.3c-3.4,2.8-7.1,5.2-10.7,7.7c-6.2,4.3-12.3,8.7-18.5,12.9
		C54.9,91.3,52.7,92,50.5,93.1z"/>
	<path class="st1" d="M50.2,78.1C48,77,46,76.3,44.3,75.1c-9.6-6.6-19.1-13.4-28.6-20.1c-1.8-1.2-4-2.5-2.3-5
		c1.8-2.7,3.9-1.2,5.8,0.2c9.1,6.4,18.3,12.7,27.3,19.3c3,2.2,5.1,2,8-0.1c8.7-6.3,17.6-12.5,26.4-18.7c0.7-0.5,1.4-1.4,2.2-1.4
		c1.4-0.1,2.9,0.3,4.4,0.5c-0.3,1.4-0.1,3.3-1,4.2c-2.2,2-4.8,3.6-7.3,5.3c-7.5,5.3-14.9,10.6-22.5,15.7
		C54.8,76.3,52.5,77,50.2,78.1z"/>
</g>
<g>
	<path class="st3" d="M102,102.3c-33.9,0-67.9,0-102,0c0-34,0-68,0-102.1c33.9,0,67.8,0,102,0C102,34.1,102,68.2,102,102.3z
		 M33.3,27c-11.1,2.9-12.1,4.3-12.8,16.1c-0.8,13.6-1.8,27.2-2.7,40.8C17.3,93,20.7,97,30,97.1c14.4,0.2,28.8,0.1,43.3,0
		c10.2-0.1,13.3-3.9,12.6-14.3c-1-13.1-1.8-26.1-2.6-39.2c-0.7-12.4-1.4-13.4-13-16.8C67.7,13.2,62,7,52.2,6.8
		C42.2,6.7,36.5,12.7,33.3,27z"/>
	<path d="M33.3,27c3.2-14.2,8.9-20.3,18.8-20.1C62,7,67.7,13.2,70.3,26.8c11.6,3.5,12.3,4.4,13,16.8c0.8,13.1,1.6,26.2,2.6,39.2
		c0.8,10.4-2.4,14.2-12.6,14.3c-14.4,0.1-28.8,0.1-43.3,0C20.7,97,17.3,93,17.9,83.8c0.9-13.6,1.9-27.2,2.7-40.8
		C21.3,31.2,22.3,29.8,33.3,27z M62.7,27.6c0.2-9.5-4.1-14.7-11.2-14.4c-7.2,0.3-11.2,5.9-10.1,14.4C48.4,27.6,55.4,27.6,62.7,27.6z
		 M51.6,56.4c4.8,0,10.9-2.2,15.5-6c0.8-0.6,1.5-2.5,0.3-3.9c-1.3-1.3-3.5-0.7-4.6,0.3c-4.8,4.2-9.1,4.4-10.3,4.4s-6-0.3-10.8-4.4
		c-1.1-0.9-3.2-2.5-5-0.9c-2,1.8-0.6,3.8,0.2,4.5C41.1,54.2,46.8,56.4,51.6,56.4z"/>
	<path class="st3" d="M62.7,27.6c-7.4,0-14.3,0-21.2,0c-1.2-8.6,2.9-14.2,10.1-14.4C58.6,12.9,62.9,18.1,62.7,27.6z"/>
</g>
</svg>
