<?xml version="1.0" encoding="utf-8"?>
<!-- Generator: Adobe Illustrator 23.0.2, SVG Export Plug-In . SVG Version: 6.00 Build 0)  -->
<svg version="1.1" id="Слой_1" xmlns="http://www.w3.org/2000/svg" xmlns:xlink="http://www.w3.org/1999/xlink" x="0px" y="0px"
	 viewBox="0 0 24 24" style="enable-background:new 0 0 24 24;" xml:space="preserve">
<style type="text/css">
	.st0{display:none;fill:#0C83FA;}
	.st1{fill:#0C83FA;}
</style>
<path class="st0" d="M23.1,20.5c-0.1,1-0.6,1.5-1.6,1.5c-1.9,0-3.9,0-5.8,0c-0.9,0-1.4-0.6-1.3-1.5c0-1.4,0-2.9,0-4.3
	c0-1.8-0.9-2.9-2.4-2.9c-1.6,0-2.5,1.1-2.5,2.9c0,1.4,0,2.9,0,4.3c0,0.9-0.4,1.4-1.2,1.5c-2,0-4.1,0-6.1,0c-0.8,0-1.2-0.5-1.4-1.4
	c-0.6-3.3-0.6-6.7,0-10C1,9.9,1.3,9.2,1.8,8.7c2.5-2.9,5.5-5.3,9-6.9c0.6-0.3,1.6-0.3,2.3-0.1c3.7,1.6,6.8,4.1,9.1,7.3
	c1,1.3,1.3,6.3,1.3,6.9C23.5,17,23.2,19,23.1,20.5z"/>
<path class="st1" d="M20.4,11.8c0,2.2,0,4.4,0,6.5c-0.1,3.2-1.6,4.8-4.8,4.8c-2.5,0-5,0.1-7.5,0c-3-0.1-4.5-1.5-4.6-4.4
	c-0.1-4.7-0.1-9.4,0-14.2c0-2.2,1.8-3.9,4-3.9c2.9-0.1,5.8-0.1,8.7,0c2.5,0.1,4.1,1.8,4.2,4.3c0,1.2,0.1,2.3,0.1,3.5
	C20.5,9.6,20.5,10.7,20.4,11.8C20.5,11.8,20.5,11.8,20.4,11.8z M9.1,5.6c0,0-1.3,0-1.3,1s1.3,1,1.3,1l5.9,0c0,0,1.2,0.1,1.2-0.9
	S15,5.6,15,5.6L9.1,5.6z M9.1,10.6c0,0-1.3,0-1.3,1.1s1.2,1,1.2,1h2.6c0,0,1-0.1,1-1.1s-0.9-1-0.9-1H9.1z"/>
</svg>
