<?xml version="1.0" encoding="utf-8"?>
<!-- Generator: Adobe Illustrator 23.0.2, SVG Export Plug-In . SVG Version: 6.00 Build 0)  -->
<svg version="1.1" id="Слой_1" xmlns="http://www.w3.org/2000/svg" xmlns:xlink="http://www.w3.org/1999/xlink" x="0px" y="0px"
	 viewBox="0 0 500 500" style="enable-background:new 0 0 500 500;" xml:space="preserve">
<style type="text/css">
	.st0{fill:#FFFFFF;}
	.st1{fill-rule:evenodd;clip-rule:evenodd;fill:#FFFFFF;}
</style>
<path class="st0" d="M229.02,309.75c14.48,0,24.58-8.34,25.97-21.51h-12.02c-1.31,6.99-6.59,11.29-13.91,11.29
	c-9.45,0-15.38-7.77-15.38-20.37c0-12.43,6.01-20.25,15.34-20.25c7.2,0,12.76,4.75,13.91,11.98h12.02
	c-0.94-13.21-11.74-22.21-25.93-22.21c-17.1,0-27.94,11.49-27.94,30.51C201.08,298.26,211.84,309.75,229.02,309.75z"/>
<path class="st0" d="M261.91,308.73h11.94v-59.02h-11.94V308.73z"/>
<path class="st0" d="M302.05,309.67c13.25,0,21.72-8.47,21.72-22.91c0-14.23-8.59-22.82-21.72-22.82
	c-13.13,0-21.72,8.63-21.72,22.82C280.33,301.16,288.8,309.67,302.05,309.67z M302.05,300.55c-5.89,0-9.61-4.95-9.61-13.74
	c0-8.71,3.8-13.74,9.61-13.74s9.57,5.03,9.57,13.74C311.62,295.6,307.9,300.55,302.05,300.55z"/>
<path class="st0" d="M369,264.88h-12.48l-9.08,33.3h-0.25l-9.12-33.3h-12.8l15.18,43.85h13.5L369,264.88z"/>
<path class="st0" d="M391.61,272.78c5.32,0,8.96,3.85,9.2,9.45H382.2C382.61,276.74,386.37,272.78,391.61,272.78z M400.98,295.31
	c-1.1,3.35-4.46,5.52-8.84,5.52c-6.09,0-10.06-4.3-10.06-10.55v-0.74h30.23v-3.64c0-13.33-8.06-21.97-20.82-21.97
	c-12.97,0-21.15,9.08-21.15,23.07c0,14.03,8.1,22.66,21.6,22.66c10.84,0,18.69-5.77,20-14.36H400.98z"/>
<path class="st0" d="M418.48,308.73h11.94v-24.5c0-6.18,3.44-9.78,9.33-9.78c1.72,0,3.35,0.29,4.34,0.7v-10.51
	c-0.82-0.25-2-0.45-3.39-0.45c-5.15,0-8.88,3.03-10.43,8.59h-0.25v-7.89h-11.53V308.73z"/>
<path class="st1" d="M147.02,221.34c26.17,5.31,37.31,48.81-0.88,57.71c18.53,3.43,29.67,23.28,21.96,40.22
	c-7.71,16.94-37.32,24.92-50.95,1.75c0,0,2.37,14.49-3.51,17.49c-4.79,1.61-9.1,0.09-8.78-2.62c0.31-2.71,7.18-9.37,7.03-11.37
	c-0.16-2-0.77-2.16-1.76-0.88c-0.99,1.28-17.67,21.45-37.77,8.74c-20.1-12.7-17.98-49.12,9.66-53.34c0,0-24.95-5.21-23.72-28.85
	c1.23-23.65,23.37-30.03,29.87-29.73c4.64,0.21,21.2,2.59,25.17,20.33c0.22,0.97,1.58,10.7,1.58,10.7s-24.85,3.54-24.85,28.39
	c0,11.74,8.86,30.76,29.58,30.76c15.03,0,21.29-11.83,21.29-11.83s0.85-1.99-1.18-3.55c-2.03-1.56-5.92-5.92-5.92-5.92
	s-2.36-1.68-4.73,0c-2.37,1.68-3.57,3.55-9.46,3.55c-5.89,0-11.83-5.51-11.83-11.83c0-6.33,5.06-13.01,13.01-13.01
	c3.12,0,5.73,4.02,7.1,3.55c2.09-0.72,11.83-9.46,11.83-9.46s1.21-2.73-1.18-4.73c-2.4-2-11.04-7.24-23.66-5.92
	C114.91,251.49,115.84,215.01,147.02,221.34z"/>
</svg>
